<svg xmlns="http://www.w3.org/2000/svg" viewBox="187 141 39 44">
    <path d="M216.061 143.043L216.752 145.414L216.762 145.448L216.796 145.45L218.078 145.548L219.652 147.024L220.044 149.567L218.581 150.154L218.543 150.169L218.551 150.209L219.446 154.685L218.862 155.368L218.838 155.396L218.858 155.427L220.158 157.427L220.17 157.445L220.19 157.449L223.169 158.044L223.943 159.305L223.062 161.559L221.185 162.153L221.143 162.165L221.15 162.209L221.338 163.243L218.806 162.951L218.748 162.944L218.75 163.001L218.849 165.681L218.062 166.567L218.034 166.599L218.062 166.631L219.831 168.794L218.767 169.763L218.742 169.785L218.752 169.815L219.452 172.015L219.46 172.037L219.481 172.046L221.453 172.834L221.851 176.406L221.856 176.457L221.907 176.45L223.093 176.267L221.883 178.035L220.322 177.255L220.296 177.243L220.271 177.259L218.084 178.75L215.099 178.85L215.084 178.851L215.071 178.859L214.071 179.559L214.057 179.57L214.052 179.587L213.159 182.856L212.121 183.045L210.84 181.37L210.825 181.35H209.133L207.357 177.406L207.94 176.63L207.963 176.6L207.939 176.57L206.248 174.381L205.95 170.197L205.947 170.164L205.917 170.153L204.018 169.453L203.99 169.443L203.968 169.461L202.324 170.83L203.246 168.62L203.26 168.587L203.233 168.563L202.059 167.486L203.046 165.12L203.075 165.05H199.312L196.632 163.76L193.839 160.369L193.82 160.346L193.791 160.351L190.424 160.945L189.355 159.196L190.646 156.019L190.656 155.994L190.641 155.971L189.057 153.694L189.639 152.435L191.624 151.344L191.644 151.333L191.648 151.312L192.64 147.245L194.584 147.052L196.257 148.529L197.652 152.816L197.657 152.83L197.67 152.84L198.87 153.74L198.881 153.748L198.894 153.749L202.094 154.15L202.107 154.152L202.12 154.146L204.92 152.946L204.955 152.931L204.949 152.893L204.753 151.522L207.11 149.853L209.888 150.548L209.953 150.565L209.95 150.497L209.851 148.619L211.736 146.634L211.743 146.627L211.746 146.619L212.847 143.819L213.525 142.655L216.061 143.043Z" fill="#006836" stroke="#004d26" stroke-width="0.3" />
</svg>
